<svg width="364" height="159" viewBox="0 0 364 159" fill="none" xmlns="http://www.w3.org/2000/svg">
<path d="M12.87 108.76C14.5167 109.8 16.4233 110.753 18.59 111.62C20.41 112.313 22.5333 112.963 24.96 113.57C27.4733 114.09 30.2467 114.35 33.28 114.35C39.6933 114.35 42.9 112.617 42.9 109.15C42.9 108.197 42.64 107.417 42.12 106.81C41.6867 106.117 40.9933 105.553 40.04 105.12C39.0867 104.6 37.9167 104.123 36.53 103.69C35.1433 103.257 33.54 102.693 31.72 102C29.0333 101.047 26.52 99.9633 24.18 98.75C21.9267 97.5367 19.9767 96.1067 18.33 94.46C16.6833 92.7267 15.3833 90.7333 14.43 88.48C13.5633 86.14 13.13 83.3667 13.13 80.16C13.13 73.5733 15.5133 68.2433 20.28 64.17C25.0467 60.0967 32.5867 58.06 42.9 58.06C47.06 58.06 50.57 58.3633 53.43 58.97C56.3767 59.5767 58.76 60.2267 60.58 60.92C62.4867 61.6133 63.8733 62.22 64.74 62.74C65.6067 63.26 66.04 63.4767 66.04 63.39L60.58 77.82C60.58 77.9067 60.19 77.7333 59.41 77.3C58.63 76.78 57.5033 76.26 56.03 75.74C54.5567 75.1333 52.6933 74.6133 50.44 74.18C48.2733 73.66 45.7167 73.4 42.77 73.4C35.9233 73.4 32.5 75.0467 32.5 78.34C32.5 79.4667 32.8033 80.42 33.41 81.2C34.1033 81.98 35.0133 82.6733 36.14 83.28C37.2667 83.8 38.5233 84.32 39.91 84.84C41.2967 85.2733 42.77 85.75 44.33 86.27C47.45 87.3967 50.1367 88.61 52.39 89.91C54.73 91.1233 56.6367 92.5533 58.11 94.2C59.67 95.8467 60.7967 97.71 61.49 99.79C62.1833 101.87 62.53 104.253 62.53 106.94C62.53 114.307 59.9733 119.897 54.86 123.71C49.8333 127.523 42.4667 129.43 32.76 129.43C28.4267 129.43 24.6567 129.127 21.45 128.52C18.2433 127.913 15.5567 127.22 13.39 126.44C11.31 125.66 9.75 124.967 8.71 124.36C7.67 123.667 7.15 123.277 7.15 123.19L12.87 108.76ZM136.385 128H120.135L119.485 118.51C119.052 119.03 118.315 119.897 117.275 121.11C116.235 122.323 114.805 123.58 112.985 124.88C111.252 126.093 109.129 127.133 106.615 128C104.189 128.953 101.415 129.43 98.2952 129.43C91.7952 129.43 86.5086 127.177 82.4352 122.67C78.3619 118.077 76.3252 111.187 76.3252 102C76.3252 96.1933 77.1919 90.6467 78.9252 85.36C80.6586 79.9867 83.2586 75.3067 86.7252 71.32C90.2786 67.2467 94.6552 64.04 99.8552 61.7C105.142 59.2733 111.252 58.06 118.185 58.06C121.825 58.06 125.335 58.3633 128.715 58.97C132.182 59.5767 135.259 60.2267 137.945 60.92C141.065 61.7867 144.012 62.6967 146.785 63.65L136.385 128ZM124.815 75.09C123.862 74.83 122.865 74.57 121.825 74.31C120.872 74.1367 119.832 73.9633 118.705 73.79C117.665 73.6167 116.582 73.53 115.455 73.53C112.249 73.53 109.432 74.2667 107.005 75.74C104.665 77.2133 102.715 79.1633 101.155 81.59C99.5952 84.0167 98.4252 86.79 97.6452 89.91C96.8652 92.9433 96.4752 96.0633 96.4752 99.27C96.4752 101.957 96.6919 104.21 97.1252 106.03C97.6452 107.763 98.3386 109.193 99.2052 110.32C100.072 111.36 101.069 112.097 102.195 112.53C103.322 112.963 104.492 113.18 105.705 113.18C107.612 113.18 109.389 112.66 111.035 111.62C112.769 110.58 114.285 109.41 115.585 108.11C116.885 106.723 117.969 105.38 118.835 104.08C119.789 102.693 120.439 101.697 120.785 101.09L124.815 75.09ZM181.72 59.49L182.63 69.11C183.496 67.9833 184.666 66.8133 186.14 65.6C187.7 64.3 189.52 63.0867 191.6 61.96C193.68 60.8333 196.02 59.9233 198.62 59.23C201.22 58.45 204.08 58.06 207.2 58.06L203.69 75.87C203.516 75.87 203.256 75.8267 202.91 75.74C202.65 75.74 202.26 75.74 201.74 75.74C201.306 75.6533 200.786 75.61 200.18 75.61C197.32 75.61 194.72 76.13 192.38 77.17C190.126 78.21 188.176 79.3367 186.53 80.55C184.623 82.0233 182.933 83.6267 181.46 85.36L174.83 128H154.68L165.47 59.49H181.72ZM234.544 59.49L239.614 97.84L240.004 113.57L245.334 97.84L262.624 59.49H283.424L251.184 128H225.054L214.394 59.49H234.544ZM320.032 32.97L315.612 61.05L313.922 68.85C314.528 68.1567 315.482 67.2033 316.782 65.99C318.168 64.7767 319.858 63.6067 321.852 62.48C323.845 61.2667 326.142 60.2267 328.742 59.36C331.428 58.4933 334.418 58.06 337.712 58.06C343.778 58.06 348.372 59.7933 351.492 63.26C354.612 66.64 356.172 71.32 356.172 77.3C356.172 79.4667 355.998 81.5467 355.652 83.54L348.632 128H328.482L335.242 85.36C335.328 84.7533 335.372 84.19 335.372 83.67C335.458 83.15 335.502 82.6733 335.502 82.24C335.502 76.9533 333.118 74.31 328.352 74.31C326.098 74.31 323.975 74.8733 321.982 76C320.075 77.1267 318.342 78.34 316.782 79.64C314.962 81.2 313.272 82.9333 311.712 84.84L304.952 128H284.802L299.882 32.97H320.032Z" fill="#101629"/>
<path d="M59.0882 153L61.8882 135.325H68.9632C69.8132 135.325 70.5882 135.392 71.2882 135.525C71.9882 135.658 72.5882 135.875 73.0882 136.175C73.5882 136.475 73.9715 136.867 74.2382 137.35C74.5215 137.817 74.6632 138.4 74.6632 139.1C74.6632 139.55 74.6049 140.008 74.4882 140.475C74.3882 140.942 74.2215 141.383 73.9882 141.8C73.7549 142.2 73.4382 142.575 73.0382 142.925C72.6549 143.258 72.1882 143.533 71.6382 143.75C72.4382 144 73.0299 144.425 73.4132 145.025C73.7965 145.625 73.9882 146.342 73.9882 147.175C73.9882 148.975 73.3715 150.4 72.1382 151.45C70.9049 152.483 68.9799 153 66.3632 153H59.0882ZM66.5632 149.975C67.2632 149.975 67.8382 149.908 68.2882 149.775C68.7382 149.625 69.0882 149.425 69.3382 149.175C69.6049 148.925 69.7882 148.633 69.8882 148.3C69.9882 147.95 70.0382 147.575 70.0382 147.175C70.0382 146.558 69.8299 146.117 69.4132 145.85C68.9965 145.567 68.2799 145.425 67.2632 145.425H64.2382L63.5132 149.975H66.5632ZM67.5382 142.675C68.7382 142.675 69.5799 142.45 70.0632 142C70.5632 141.533 70.8132 140.858 70.8132 139.975C70.8132 139.375 70.6049 138.95 70.1882 138.7C69.7882 138.45 69.1382 138.325 68.2382 138.325H65.3632L64.6632 142.675H67.5382ZM84.3333 139.825L83.0333 148.025C83.0166 148.125 83 148.225 82.9833 148.325C82.9833 148.425 82.9833 148.517 82.9833 148.6C82.9833 149.133 83.1083 149.525 83.3583 149.775C83.625 150.025 83.975 150.15 84.4083 150.15C84.825 150.15 85.225 150.042 85.6083 149.825C86.0083 149.592 86.35 149.333 86.6333 149.05C86.9666 148.733 87.2833 148.367 87.5833 147.95L88.8583 139.825H92.7333L90.6583 153H87.5333L87.3833 151.175C87.0333 151.575 86.6333 151.925 86.1833 152.225C85.7833 152.492 85.2916 152.733 84.7083 152.95C84.1416 153.167 83.4833 153.275 82.7333 153.275C81.5333 153.275 80.6083 152.942 79.9583 152.275C79.325 151.608 79.0083 150.683 79.0083 149.5C79.0083 149.317 79.0166 149.133 79.0333 148.95C79.05 148.767 79.075 148.575 79.1083 148.375L80.4583 139.825H84.3333ZM95.445 155.15C95.545 155.2 95.67 155.242 95.82 155.275C95.9367 155.308 96.0784 155.333 96.245 155.35C96.4117 155.367 96.5867 155.375 96.77 155.375C97.2867 155.375 97.72 155.283 98.07 155.1C98.4367 154.917 98.7367 154.692 98.97 154.425C99.22 154.175 99.4117 153.908 99.545 153.625C99.6784 153.358 99.795 153.133 99.895 152.95L97.345 139.825H101.345L102.245 146.925L102.295 149.75L106.645 139.825H110.57L103.595 153.4C103.178 154.217 102.745 154.933 102.295 155.55C101.862 156.183 101.387 156.708 100.87 157.125C100.353 157.542 99.7784 157.85 99.145 158.05C98.5284 158.267 97.82 158.375 97.02 158.375C96.6534 158.375 96.3367 158.358 96.07 158.325C95.8034 158.292 95.5784 158.258 95.395 158.225C95.1784 158.175 94.995 158.117 94.845 158.05L95.445 155.15ZM131.134 148.575C131.551 148.875 132.018 149.133 132.534 149.35C132.968 149.533 133.484 149.708 134.084 149.875C134.684 150.025 135.359 150.1 136.109 150.1C137.043 150.1 137.784 149.942 138.334 149.625C138.884 149.292 139.159 148.783 139.159 148.1C139.159 147.5 138.934 147.058 138.484 146.775C138.051 146.492 137.476 146.208 136.759 145.925C136.026 145.642 135.343 145.358 134.709 145.075C134.076 144.775 133.518 144.425 133.034 144.025C132.551 143.625 132.168 143.142 131.884 142.575C131.618 142.008 131.484 141.308 131.484 140.475C131.484 138.742 132.084 137.408 133.284 136.475C134.501 135.525 136.234 135.05 138.484 135.05C139.384 135.05 140.176 135.117 140.859 135.25C141.559 135.383 142.151 135.533 142.634 135.7C143.184 135.883 143.668 136.092 144.084 136.325L142.859 139.175C142.559 139.008 142.201 138.85 141.784 138.7C141.434 138.567 141.001 138.45 140.484 138.35C139.968 138.25 139.368 138.2 138.684 138.2C137.718 138.2 136.934 138.342 136.334 138.625C135.734 138.908 135.434 139.408 135.434 140.125C135.434 140.375 135.484 140.592 135.584 140.775C135.684 140.942 135.851 141.108 136.084 141.275C136.334 141.442 136.668 141.625 137.084 141.825C137.501 142.008 138.034 142.233 138.684 142.5C139.351 142.783 139.959 143.067 140.509 143.35C141.076 143.633 141.551 143.967 141.934 144.35C142.334 144.733 142.643 145.192 142.859 145.725C143.076 146.242 143.184 146.875 143.184 147.625C143.184 149.358 142.576 150.733 141.359 151.75C140.159 152.767 138.376 153.275 136.009 153.275C134.959 153.275 134.051 153.192 133.284 153.025C132.518 152.858 131.876 152.675 131.359 152.475C130.759 152.242 130.251 151.967 129.834 151.65L131.134 148.575ZM155.778 139.55C157.311 139.55 158.453 139.9 159.203 140.6C159.953 141.3 160.328 142.183 160.328 143.25C160.328 143.883 160.186 144.475 159.903 145.025C159.619 145.558 159.178 146.025 158.578 146.425C157.978 146.825 157.211 147.142 156.278 147.375C155.361 147.592 154.261 147.7 152.978 147.7C152.811 147.7 152.644 147.7 152.478 147.7C152.311 147.7 152.136 147.692 151.953 147.675C151.953 147.742 151.944 147.808 151.928 147.875C151.928 147.925 151.928 147.975 151.928 148.025C151.928 148.808 152.136 149.383 152.553 149.75C152.986 150.117 153.661 150.3 154.578 150.3C155.078 150.3 155.553 150.258 156.003 150.175C156.453 150.092 156.844 149.992 157.178 149.875C157.578 149.742 157.936 149.592 158.253 149.425L158.678 152.2C158.294 152.4 157.869 152.583 157.403 152.75C156.986 152.883 156.494 153 155.928 153.1C155.361 153.217 154.711 153.275 153.978 153.275C151.928 153.275 150.428 152.775 149.478 151.775C148.528 150.775 148.053 149.425 148.053 147.725C148.053 146.625 148.228 145.583 148.578 144.6C148.944 143.6 149.461 142.733 150.128 142C150.794 141.25 151.603 140.658 152.553 140.225C153.519 139.775 154.594 139.55 155.778 139.55ZM152.228 145.3C153.594 145.3 154.678 145.158 155.478 144.875C156.294 144.592 156.703 144.133 156.703 143.5C156.703 143.167 156.578 142.883 156.328 142.65C156.094 142.417 155.736 142.3 155.253 142.3C154.553 142.3 153.919 142.567 153.353 143.1C152.786 143.617 152.411 144.35 152.228 145.3ZM170.426 152.65C170.192 152.783 169.926 152.892 169.626 152.975C169.359 153.058 169.042 153.125 168.676 153.175C168.309 153.242 167.909 153.275 167.476 153.275C166.409 153.275 165.642 152.992 165.176 152.425C164.726 151.842 164.501 151.1 164.501 150.2C164.501 150.017 164.509 149.833 164.526 149.65C164.542 149.45 164.567 149.258 164.601 149.075L166.876 134.725H170.751L168.551 148.725C168.501 148.975 168.476 149.2 168.476 149.4C168.476 150.033 168.751 150.35 169.301 150.35C169.434 150.35 169.567 150.342 169.701 150.325C169.834 150.308 169.959 150.283 170.076 150.25C170.209 150.217 170.334 150.175 170.451 150.125L170.426 152.65ZM181.33 152.65C181.097 152.783 180.83 152.892 180.53 152.975C180.263 153.058 179.947 153.125 179.58 153.175C179.213 153.242 178.813 153.275 178.38 153.275C177.313 153.275 176.547 152.992 176.08 152.425C175.63 151.842 175.405 151.1 175.405 150.2C175.405 150.017 175.413 149.833 175.43 149.65C175.447 149.45 175.472 149.258 175.505 149.075L177.78 134.725H181.655L179.455 148.725C179.405 148.975 179.38 149.2 179.38 149.4C179.38 150.033 179.655 150.35 180.205 150.35C180.338 150.35 180.472 150.342 180.605 150.325C180.738 150.308 180.863 150.283 180.98 150.25C181.113 150.217 181.238 150.175 181.355 150.125L181.33 152.65ZM205.229 138.35C204.295 138.35 203.445 138.508 202.679 138.825C201.912 139.142 201.254 139.592 200.704 140.175C200.154 140.758 199.729 141.458 199.429 142.275C199.129 143.092 198.979 144 198.979 145C198.979 145.9 199.104 146.667 199.354 147.3C199.604 147.933 199.945 148.45 200.379 148.85C200.812 149.233 201.32 149.517 201.904 149.7C202.487 149.883 203.12 149.975 203.804 149.975C204.237 149.975 204.629 149.95 204.979 149.9C205.329 149.85 205.637 149.783 205.904 149.7C206.204 149.617 206.487 149.517 206.754 149.4L206.979 152.575C206.695 152.708 206.362 152.825 205.979 152.925C205.645 153.008 205.229 153.083 204.729 153.15C204.245 153.233 203.67 153.275 203.004 153.275C200.287 153.275 198.254 152.583 196.904 151.2C195.57 149.8 194.904 147.867 194.904 145.4C194.904 143.933 195.129 142.575 195.579 141.325C196.045 140.058 196.712 138.967 197.579 138.05C198.445 137.117 199.504 136.383 200.754 135.85C202.004 135.317 203.42 135.05 205.004 135.05C205.704 135.05 206.329 135.1 206.879 135.2C207.445 135.283 207.92 135.375 208.304 135.475C208.754 135.608 209.154 135.75 209.504 135.9L208.379 139C208.379 139 208.304 138.967 208.154 138.9C208.004 138.833 207.787 138.758 207.504 138.675C207.237 138.592 206.904 138.517 206.504 138.45C206.12 138.383 205.695 138.35 205.229 138.35ZM217.944 153.275C217.077 153.275 216.286 153.158 215.569 152.925C214.852 152.675 214.236 152.317 213.719 151.85C213.219 151.367 212.827 150.767 212.544 150.05C212.261 149.317 212.119 148.467 212.119 147.5C212.119 146.317 212.294 145.242 212.644 144.275C212.994 143.292 213.486 142.45 214.119 141.75C214.752 141.05 215.519 140.508 216.419 140.125C217.319 139.742 218.319 139.55 219.419 139.55C221.486 139.55 223.019 140.05 224.019 141.05C225.019 142.05 225.519 143.467 225.519 145.3C225.519 146.45 225.344 147.517 224.994 148.5C224.661 149.467 224.169 150.308 223.519 151.025C222.886 151.725 222.094 152.275 221.144 152.675C220.211 153.075 219.144 153.275 217.944 153.275ZM215.994 147.475C215.994 148.325 216.169 149.008 216.519 149.525C216.886 150.025 217.486 150.275 218.319 150.275C218.836 150.275 219.302 150.15 219.719 149.9C220.136 149.65 220.486 149.308 220.769 148.875C221.069 148.425 221.294 147.9 221.444 147.3C221.594 146.683 221.669 146.017 221.669 145.3C221.669 144.417 221.486 143.742 221.119 143.275C220.769 142.792 220.161 142.55 219.294 142.55C218.777 142.55 218.311 142.675 217.894 142.925C217.494 143.175 217.152 143.517 216.869 143.95C216.586 144.383 216.369 144.908 216.219 145.525C216.069 146.125 215.994 146.775 215.994 147.475ZM234.661 139.825L234.811 141.65C235.145 141.25 235.545 140.9 236.011 140.6C236.395 140.333 236.878 140.092 237.461 139.875C238.045 139.658 238.711 139.55 239.461 139.55C240.661 139.55 241.578 139.883 242.211 140.55C242.861 141.217 243.186 142.142 243.186 143.325C243.186 143.508 243.178 143.692 243.161 143.875C243.145 144.058 243.12 144.25 243.086 144.45L241.736 153H237.861L239.161 144.8C239.178 144.7 239.186 144.6 239.186 144.5C239.203 144.4 239.211 144.308 239.211 144.225C239.211 143.692 239.078 143.3 238.811 143.05C238.561 142.8 238.22 142.675 237.786 142.675C237.353 142.675 236.945 142.792 236.561 143.025C236.178 143.242 235.845 143.492 235.561 143.775C235.228 144.092 234.911 144.458 234.611 144.875L233.336 153H229.461L231.536 139.825H234.661ZM252.548 139.825L252.698 141.65C253.031 141.25 253.431 140.9 253.898 140.6C254.281 140.333 254.765 140.092 255.348 139.875C255.931 139.658 256.598 139.55 257.348 139.55C258.548 139.55 259.465 139.883 260.098 140.55C260.748 141.217 261.073 142.142 261.073 143.325C261.073 143.508 261.065 143.692 261.048 143.875C261.031 144.058 261.006 144.25 260.973 144.45L259.623 153H255.748L257.048 144.8C257.065 144.7 257.073 144.6 257.073 144.5C257.09 144.4 257.098 144.308 257.098 144.225C257.098 143.692 256.965 143.3 256.698 143.05C256.448 142.8 256.106 142.675 255.673 142.675C255.24 142.675 254.831 142.792 254.448 143.025C254.065 143.242 253.731 143.492 253.448 143.775C253.115 144.092 252.798 144.458 252.498 144.875L251.223 153H247.348L249.423 139.825H252.548ZM273.31 139.55C274.843 139.55 275.985 139.9 276.735 140.6C277.485 141.3 277.86 142.183 277.86 143.25C277.86 143.883 277.718 144.475 277.435 145.025C277.152 145.558 276.71 146.025 276.11 146.425C275.51 146.825 274.743 147.142 273.81 147.375C272.893 147.592 271.793 147.7 270.51 147.7C270.343 147.7 270.177 147.7 270.01 147.7C269.843 147.7 269.668 147.692 269.485 147.675C269.485 147.742 269.477 147.808 269.46 147.875C269.46 147.925 269.46 147.975 269.46 148.025C269.46 148.808 269.668 149.383 270.085 149.75C270.518 150.117 271.193 150.3 272.11 150.3C272.61 150.3 273.085 150.258 273.535 150.175C273.985 150.092 274.377 149.992 274.71 149.875C275.11 149.742 275.468 149.592 275.785 149.425L276.21 152.2C275.827 152.4 275.402 152.583 274.935 152.75C274.518 152.883 274.027 153 273.46 153.1C272.893 153.217 272.243 153.275 271.51 153.275C269.46 153.275 267.96 152.775 267.01 151.775C266.06 150.775 265.585 149.425 265.585 147.725C265.585 146.625 265.76 145.583 266.11 144.6C266.477 143.6 266.993 142.733 267.66 142C268.327 141.25 269.135 140.658 270.085 140.225C271.052 139.775 272.127 139.55 273.31 139.55ZM269.76 145.3C271.127 145.3 272.21 145.158 273.01 144.875C273.827 144.592 274.235 144.133 274.235 143.5C274.235 143.167 274.11 142.883 273.86 142.65C273.627 142.417 273.268 142.3 272.785 142.3C272.085 142.3 271.452 142.567 270.885 143.1C270.318 143.617 269.943 144.35 269.76 145.3ZM292.258 143.15C292.058 143.05 291.841 142.958 291.608 142.875C291.408 142.808 291.166 142.75 290.883 142.7C290.6 142.633 290.291 142.6 289.958 142.6C289.325 142.6 288.75 142.717 288.233 142.95C287.716 143.167 287.275 143.475 286.908 143.875C286.558 144.275 286.283 144.75 286.083 145.3C285.9 145.85 285.808 146.458 285.808 147.125C285.808 148.258 286.083 149.067 286.633 149.55C287.2 150.017 287.975 150.25 288.958 150.25C289.291 150.25 289.6 150.233 289.883 150.2C290.166 150.15 290.4 150.1 290.583 150.05C290.8 149.983 291 149.908 291.183 149.825L291.433 152.675C291.183 152.792 290.891 152.892 290.558 152.975C290.275 153.058 289.916 153.125 289.483 153.175C289.066 153.242 288.583 153.275 288.033 153.275C287.1 153.275 286.258 153.167 285.508 152.95C284.758 152.717 284.116 152.367 283.583 151.9C283.05 151.433 282.633 150.833 282.333 150.1C282.05 149.367 281.908 148.492 281.908 147.475C281.908 146.342 282.083 145.292 282.433 144.325C282.8 143.358 283.316 142.525 283.983 141.825C284.65 141.108 285.466 140.55 286.433 140.15C287.4 139.75 288.483 139.55 289.683 139.55C290.25 139.55 290.75 139.592 291.183 139.675C291.633 139.758 292.016 139.842 292.333 139.925C292.7 140.042 293.025 140.167 293.308 140.3L292.258 143.15ZM304.811 152.6C304.528 152.733 304.228 152.85 303.911 152.95C303.628 153.033 303.295 153.108 302.911 153.175C302.528 153.242 302.095 153.275 301.611 153.275C300.428 153.275 299.511 153.008 298.861 152.475C298.211 151.925 297.886 151.05 297.886 149.85C297.886 149.667 297.895 149.475 297.911 149.275C297.928 149.058 297.953 148.833 297.986 148.6L298.911 142.875H297.386L297.836 139.825H299.461L300.461 136.425H303.836L303.286 139.825H306.661L306.061 142.875H302.861L301.936 148.6C301.92 148.683 301.903 148.767 301.886 148.85C301.886 148.917 301.886 148.983 301.886 149.05C301.886 149.8 302.345 150.175 303.261 150.175C303.711 150.175 304.095 150.117 304.411 150C304.578 149.95 304.72 149.892 304.836 149.825L304.811 152.6Z" fill="#101629"/>
</svg>
